{"title":"Goodbye.Gemini.1970.DVDRip.XViD-SPRiNTER","uid":11203919,"size":742270293,"categoryP":"video","categoryS":"movies","magnet":"?xt=urn:btih:b3fb450c19984536f263dd155b40ea2619c095e7&amp;dn=Goodbye.Gemini.1970.DVDRip.XViD-SPRiNTER&amp;tr=udp%3A%2F%2Ftracker.openbittorrent.com%3A80&amp;tr=udp%3A%2F%2Fopen.demonii.com%3A1337&amp;tr=udp%3A%2F%2Ftracker.coppersurfer.tk%3A6969&amp;tr=udp%3A%2F%2Fexodus.desync.com%3A6969","seeders":0,"leechers":1,"uploader":"TvTeam","files":4,"time":1413206752,"description":" &lt;a href=&quot;http://www.torrenting.com&quot; rel=&quot;nofollow&quot; target=&quot;_NEW&quot;&gt;http://www.torrenting.com&lt;/a&gt;\n\nSign up is OPEN - for time being. Come and have fun.\n\n\n....\n                                                     \n                                                   \n                                                         \n                                                          \n                                                           \n                                                          \n                                                          \n                                                          \n                                                           \n                                                         \n                                                          \n                                                        \n                                                      \n                                     \n                                                 \n                                                   \n                                             \n                                              \n                                                     \n                                                      \n                                                      \n                                                      \n                                                    \n                                                     \n                                                   \n                                                     \n                                                     \n                                                      \n                                                     \n                                                      \n                                                    \n                 ARTiCHOKE                        \n                                                \n                      \n                                                        \n                                                      \n                                                      \n                                               \n                                          \n                                                   \n                                            \n                                                    \n                                                       \n                                                        \n                                                      \n                                                \n                                                        \n                                                 \n                                              \n                                                  \n                                                \n                                                  \n                                        \n\n      \n                                \n      SPRiNTER proudly presents...     \n                                \n      \n \n Goodbye.Gemini.1970.DVDRip.XViD-SPRiNTER\n &lt;a href=&quot; http://www.imdb.com/title/tt0065790/&quot; rel=&quot;nofollow&quot; target=&quot;_NEW&quot;&gt; http://www.imdb.com/title/tt0065790/&lt;/a&gt;\n Subtitles: NA\n\n Date: 2010.06\n\n Director:Alan Gibson\n Genre: Drama | Crime | Horror | Thriller\n\n\n Plot: Unnaturally close twin siblings Jacki and Julian become enmeshed in the swinging London scene, where they attract the attention of the heavily endebted gambler Clive. Seeing a way out of his debts, Clive sets Julian up for a blackmail scheme, setting in motion a nightmarish sequence of events.\n \n\n Cast\n Judy Geeson ...  Jacki \n Martin Potter ...  Julian \n Michael Redgrave ...  James Harrington-Smith \n Alexis Kanner ...  Clive Landseer \n Mike Pratt ...  Rod Barstowe \n Marion Diamond ...  Denise Pryce-Fletcher \n Freddie Jones ...  David Curry \n Peter Jeffrey ...  Detective Inspector Kingsley \n Terry Scully ...  Nigel Garfield \n Daphne Heard ...  Mrs. McLaren \n Laurence Hardy ...  Minister \n Joseph Frst ...  Georgiu \n\n\n\n      \n                 \n      Release notes     \n                 \n      \n\n Enjoy!\n\n\n      \n           \n     Greetings    \n           \n      \n\n\nNTX aAF FiCO HNR CiNEFiLE AEN HUMANiSM\n\n\n      \n           \n      Details     \n           \n      \n\n\nGeneral\nFormat                           : AVI\nFormat/Info                      : Audio Video Interleave\nFile size                        : 696 MiB\nDuration                         : 1h 29mn\nOverall bit rate                 : 1 088 Kbps\nWriting application              : Nandub v1.0rc2\nWriting library                  : Nandub build 1852/release\n\nVideo\nID                               : 0\nFormat                           : MPEG-4 Visual\nFormat profile                   : Advanced Simple@L5\nFormat settings, BVOP            : No\nFormat settings, QPel            : No\nFormat settings, GMC             : No warppoints\nFormat settings, Matrix          : Default (H.263)\nCodec ID                         : XVID\nCodec ID/Hint                    : XviD\nDuration                         : 1h 29mn\nBit rate                         : 941 Kbps\nWidth                            : 608 pixels\nHeight                           : 336 pixels\nDisplay aspect ratio             : 16:9\nFrame rate                       : 23.976 fps\nResolution                       : 8 bits\nColorimetry                      : 4:2:0\nScan type                        : Progressive\nBits/(Pixel*Frame)               : 0.192\nStream size                      : 601 MiB (86%)\nWriting library                  : XviD 1.1.2 (UTC 2006-11-01)\n\nAudio\nID                               : 1\nFormat                           : MPEG Audio\nFormat version                   : Version 1\nFormat profile                   : Layer 3\nCodec ID                         : 55\nCodec ID/Hint                    : MP3\nDuration                         : 1h 29mn\nBit rate mode                    : Variable\nBit rate                         : 135 Kbps\nMinimum bit rate                 : 40.0 Kbps\nChannel(s)                       : 2 channels\nSampling rate                    : 48.0 KHz\nStream size                      : 86.2 MiB (12%)\nAlignment                        : Aligned on interleaves\nInterleave, duration             : 24 ms (0.58 video frame)\nInterleave, preload duration     : 454 ms\nWriting library                  : LAME3.95 \nEncoding settings                : -m s -V 5 -q 3 -lowpass 17 --vbr-old -b 40","torrent":{"xt":"urn:btih:b3fb450c19984536f263dd155b40ea2619c095e7","amp;dn":"Goodbye.Gemini.1970.DVDRip.XViD-SPRiNTER","amp;tr":["udp%3A%2F%2Ftracker.openbittorrent.com%3A80","udp%3A%2F%2Fopen.demonii.com%3A1337","udp%3A%2F%2Ftracker.coppersurfer.tk%3A6969","udp%3A%2F%2Fexodus.desync.com%3A6969"],"infoHash":"b3fb450c19984536f263dd155b40ea2619c095e7","infoHashBuffer":{"type":"Buffer","data":[179,251,69,12,25,152,69,54,242,99,221,21,91,64,234,38,25,192,149,231]},"announce":[],"urlList":[]}}